<?xml version="1.0" encoding="UTF-8"?>
<svg id="Layer_1" data-name="Layer 1" xmlns="http://www.w3.org/2000/svg" viewBox="0 0 1046 591">
  <defs>
    <style>
      .cls-1 {
        fill: #ddd;
      }

      .cls-2 {
        fill: #040404;
      }
    </style>
  </defs>
  <path class="cls-2" d="M32.74,36.23c19.66-3.39,20.38,26.87.87,24.7-13.63-1.51-14.15-22.42-.87-24.7Z"/>
  <path class="cls-2" d="M872.74,526.23c19.66-3.39,20.38,26.87.87,24.7-13.63-1.51-14.15-22.42-.87-24.7Z"/>
  <path class="cls-2" d="M732.74,526.23c19.66-3.39,20.38,26.87.87,24.7-13.63-1.51-14.15-22.42-.87-24.7Z"/>
  <path class="cls-2" d="M557.74,526.23c19.66-3.39,20.38,26.87.87,24.7-13.63-1.51-14.15-22.42-.87-24.7Z"/>
  <path class="cls-2" d="M172.74,36.23c19.66-3.39,20.38,26.87.87,24.7-13.63-1.51-14.15-22.42-.87-24.7Z"/>
  <path class="cls-2" d="M242.74,36.23c19.66-3.39,20.38,26.87.87,24.7-13.63-1.51-14.15-22.42-.87-24.7Z"/>
  <path class="cls-2" d="M277.74,36.23c19.66-3.39,20.38,26.87.87,24.7-13.63-1.51-14.15-22.42-.87-24.7Z"/>
  <path class="cls-2" d="M312.74,36.23c19.66-3.39,20.38,26.87.87,24.7-13.63-1.51-14.15-22.42-.87-24.7Z"/>
  <path class="cls-2" d="M347.74,36.23c19.66-3.39,20.38,26.87.87,24.7-13.63-1.51-14.15-22.42-.87-24.7Z"/>
  <path class="cls-2" d="M522.74,526.23c19.66-3.39,20.38,26.87.87,24.7-13.63-1.51-14.15-22.42-.87-24.7Z"/>
  <path class="cls-2" d="M487.74,526.23c19.66-3.39,20.38,26.87.87,24.7-13.63-1.51-14.15-22.42-.87-24.7Z"/>
  <path class="cls-2" d="M487.74,36.23c19.66-3.39,20.38,26.87.87,24.7-13.63-1.51-14.15-22.42-.87-24.7Z"/>
  <path class="cls-2" d="M522.74,36.23c19.66-3.39,20.38,26.87.87,24.7-13.63-1.51-14.15-22.42-.87-24.7Z"/>
  <path class="cls-2" d="M557.74,36.23c19.66-3.39,20.38,26.87.87,24.7-13.63-1.51-14.15-22.42-.87-24.7Z"/>
  <path class="cls-2" d="M382.74,526.23c19.66-3.39,20.38,26.87.87,24.7-13.63-1.51-14.15-22.42-.87-24.7Z"/>
  <path class="cls-2" d="M662.74,36.23c19.66-3.39,20.38,26.87.87,24.7-13.63-1.51-14.15-22.42-.87-24.7Z"/>
  <path class="cls-2" d="M697.74,36.23c19.66-3.39,20.38,26.87.87,24.7-13.63-1.51-14.15-22.42-.87-24.7Z"/>
  <path class="cls-2" d="M732.74,36.23c19.66-3.39,20.38,26.87.87,24.7-13.63-1.51-14.15-22.42-.87-24.7Z"/>
  <path class="cls-2" d="M767.74,36.23c19.66-3.39,20.38,26.87.87,24.7-13.63-1.51-14.15-22.42-.87-24.7Z"/>
  <path class="cls-2" d="M802.74,36.23c19.66-3.39,20.38,26.87.87,24.7-13.63-1.51-14.15-22.42-.87-24.7Z"/>
  <path class="cls-2" d="M872.74,36.23c19.66-3.39,20.38,26.87.87,24.7-13.63-1.51-14.15-22.42-.87-24.7Z"/>
  <path class="cls-2" d="M907.74,36.23c19.66-3.39,20.38,26.87.87,24.7-13.63-1.51-14.15-22.42-.87-24.7Z"/>
  <path class="cls-2" d="M942.74,36.23c19.66-3.39,20.38,26.87.87,24.7-13.63-1.51-14.15-22.42-.87-24.7Z"/>
  <path class="cls-2" d="M977.74,36.23c19.66-3.39,20.38,26.87.87,24.7-13.63-1.51-14.15-22.42-.87-24.7Z"/>
  <path class="cls-2" d="M1012.74,36.23c19.66-3.39,20.38,26.87.87,24.7-13.63-1.51-14.15-22.42-.87-24.7Z"/>
  <path class="cls-2" d="M32.74,71.23c19.66-3.39,20.38,26.87.87,24.7-13.63-1.51-14.15-22.42-.87-24.7Z"/>
  <path class="cls-2" d="M242.74,526.23c19.66-3.39,20.38,26.87.87,24.7-13.63-1.51-14.15-22.42-.87-24.7Z"/>
  <path class="cls-2" d="M172.74,526.23c19.66-3.39,20.38,26.87.87,24.7-13.63-1.51-14.15-22.42-.87-24.7Z"/>
  <path class="cls-2" d="M137.74,71.23c19.66-3.39,20.38,26.87.87,24.7-13.63-1.51-14.15-22.42-.87-24.7Z"/>
  <path class="cls-2" d="M137.74,526.23c19.66-3.39,20.38,26.87.87,24.7-13.63-1.51-14.15-22.42-.87-24.7Z"/>
  <path class="cls-2" d="M242.74,71.23c19.66-3.39,20.38,26.87.87,24.7-13.63-1.51-14.15-22.42-.87-24.7Z"/>
  <path class="cls-2" d="M102.74,526.23c19.66-3.39,20.38,26.87.87,24.7-13.63-1.51-14.15-22.42-.87-24.7Z"/>
  <path class="cls-2" d="M67.74,526.23c19.66-3.39,20.38,26.87.87,24.7-13.63-1.51-14.15-22.42-.87-24.7Z"/>
  <path class="cls-2" d="M907.74,491.23c19.66-3.39,20.38,26.87.87,24.7-13.63-1.51-14.15-22.42-.87-24.7Z"/>
  <path class="cls-2" d="M382.74,71.23c19.66-3.39,20.38,26.87.87,24.7-13.63-1.51-14.15-22.42-.87-24.7Z"/>
  <path class="cls-2" d="M452.74,71.23c19.66-3.39,20.38,26.87.87,24.7-13.63-1.51-14.15-22.42-.87-24.7Z"/>
  <path class="cls-2" d="M837.74,491.23c19.66-3.39,20.38,26.87.87,24.7-13.63-1.51-14.15-22.42-.87-24.7Z"/>
  <path class="cls-2" d="M767.74,491.23c19.66-3.39,20.38,26.87.87,24.7-13.63-1.51-14.15-22.42-.87-24.7Z"/>
  <path class="cls-2" d="M697.74,491.23c19.66-3.39,20.38,26.87.87,24.7-13.63-1.51-14.15-22.42-.87-24.7Z"/>
  <path class="cls-2" d="M592.74,71.23c19.66-3.39,20.38,26.87.87,24.7-13.63-1.51-14.15-22.42-.87-24.7Z"/>
  <path class="cls-2" d="M662.74,71.23c19.66-3.39,20.38,26.87.87,24.7-13.63-1.51-14.15-22.42-.87-24.7Z"/>
  <path class="cls-2" d="M592.74,491.23c19.66-3.39,20.38,26.87.87,24.7-13.63-1.51-14.15-22.42-.87-24.7Z"/>
  <path class="cls-2" d="M452.74,491.23c19.66-3.39,20.38,26.87.87,24.7-13.63-1.51-14.15-22.42-.87-24.7Z"/>
  <path class="cls-2" d="M347.74,491.23c19.66-3.39,20.38,26.87.87,24.7-13.63-1.51-14.15-22.42-.87-24.7Z"/>
  <path class="cls-2" d="M242.74,491.23c19.66-3.39,20.38,26.87.87,24.7-13.63-1.51-14.15-22.42-.87-24.7Z"/>
  <path class="cls-2" d="M32.74,491.23c19.66-3.39,20.38,26.87.87,24.7-13.63-1.51-14.15-22.42-.87-24.7Z"/>
  <path class="cls-2" d="M942.74,456.23c19.66-3.39,20.38,26.87.87,24.7-13.63-1.51-14.15-22.42-.87-24.7Z"/>
  <path class="cls-2" d="M942.74,71.23c19.66-3.39,20.38,26.87.87,24.7-13.63-1.51-14.15-22.42-.87-24.7Z"/>
  <path class="cls-2" d="M802.74,456.23c19.66-3.39,20.38,26.87.87,24.7-13.63-1.51-14.15-22.42-.87-24.7Z"/>
  <path class="cls-2" d="M662.74,456.23c19.66-3.39,20.38,26.87.87,24.7-13.63-1.51-14.15-22.42-.87-24.7Z"/>
  <path class="cls-2" d="M32.74,106.23c19.66-3.39,20.38,26.87.87,24.7-13.63-1.51-14.15-22.42-.87-24.7Z"/>
  <path class="cls-2" d="M592.74,456.23c19.66-3.39,20.38,26.87.87,24.7-13.63-1.51-14.15-22.42-.87-24.7Z"/>
  <path class="cls-2" d="M102.74,106.23c19.66-3.39,20.38,26.87.87,24.7-13.63-1.51-14.15-22.42-.87-24.7Z"/>
  <path class="cls-2" d="M452.74,456.23c19.66-3.39,20.38,26.87.87,24.7-13.63-1.51-14.15-22.42-.87-24.7Z"/>
  <path class="cls-2" d="M312.74,456.23c19.66-3.39,20.38,26.87.87,24.7-13.63-1.51-14.15-22.42-.87-24.7Z"/>
  <path class="cls-2" d="M242.74,106.23c19.66-3.39,20.38,26.87.87,24.7-13.63-1.51-14.15-22.42-.87-24.7Z"/>
  <path class="cls-2" d="M242.74,456.23c19.66-3.39,20.38,26.87.87,24.7-13.63-1.51-14.15-22.42-.87-24.7Z"/>
  <path class="cls-2" d="M32.74,456.23c19.66-3.39,20.38,26.87.87,24.7-13.63-1.51-14.15-22.42-.87-24.7Z"/>
  <path class="cls-2" d="M942.74,421.23c19.66-3.39,20.38,26.87.87,24.7-13.63-1.51-14.15-22.42-.87-24.7Z"/>
  <path class="cls-2" d="M382.74,106.23c19.66-3.39,20.38,26.87.87,24.7-13.63-1.51-14.15-22.42-.87-24.7Z"/>
  <path class="cls-2" d="M452.74,106.23c19.66-3.39,20.38,26.87.87,24.7-13.63-1.51-14.15-22.42-.87-24.7Z"/>
  <path class="cls-2" d="M802.74,421.23c19.66-3.39,20.38,26.87.87,24.7-13.63-1.51-14.15-22.42-.87-24.7Z"/>
  <path class="cls-2" d="M662.74,421.23c19.66-3.39,20.38,26.87.87,24.7-13.63-1.51-14.15-22.42-.87-24.7Z"/>
  <path class="cls-2" d="M592.74,421.23c19.66-3.39,20.38,26.87.87,24.7-13.63-1.51-14.15-22.42-.87-24.7Z"/>
  <path class="cls-2" d="M592.74,106.23c19.66-3.39,20.38,26.87.87,24.7-13.63-1.51-14.15-22.42-.87-24.7Z"/>
  <path class="cls-2" d="M662.74,106.23c19.66-3.39,20.38,26.87.87,24.7-13.63-1.51-14.15-22.42-.87-24.7Z"/>
  <path class="cls-2" d="M452.74,421.23c19.66-3.39,20.38,26.87.87,24.7-13.63-1.51-14.15-22.42-.87-24.7Z"/>
  <path class="cls-2" d="M347.74,421.23c19.66-3.39,20.38,26.87.87,24.7-13.63-1.51-14.15-22.42-.87-24.7Z"/>
  <path class="cls-2" d="M312.74,421.23c19.66-3.39,20.38,26.87.87,24.7-13.63-1.51-14.15-22.42-.87-24.7Z"/>
  <path class="cls-2" d="M277.74,421.23c19.66-3.39,20.38,26.87.87,24.7-13.63-1.51-14.15-22.42-.87-24.7Z"/>
  <path class="cls-2" d="M242.74,421.23c19.66-3.39,20.38,26.87.87,24.7-13.63-1.51-14.15-22.42-.87-24.7Z"/>
  <path class="cls-2" d="M32.74,421.23c19.66-3.39,20.38,26.87.87,24.7-13.63-1.51-14.15-22.42-.87-24.7Z"/>
  <path class="cls-2" d="M942.74,106.23c19.66-3.39,20.38,26.87.87,24.7-13.63-1.51-14.15-22.42-.87-24.7Z"/>
  <path class="cls-2" d="M942.74,386.23c19.66-3.39,20.38,26.87.87,24.7-13.63-1.51-14.15-22.42-.87-24.7Z"/>
  <path class="cls-2" d="M802.74,386.23c19.66-3.39,20.38,26.87.87,24.7-13.63-1.51-14.15-22.42-.87-24.7Z"/>
  <path class="cls-2" d="M32.74,141.23c19.66-3.39,20.38,26.87.87,24.7-13.63-1.51-14.15-22.42-.87-24.7Z"/>
  <path class="cls-2" d="M67.74,141.23c19.66-3.39,20.38,26.87.87,24.7-13.63-1.51-14.15-22.42-.87-24.7Z"/>
  <path class="cls-2" d="M662.74,386.23c19.66-3.39,20.38,26.87.87,24.7-13.63-1.51-14.15-22.42-.87-24.7Z"/>
  <path class="cls-2" d="M592.74,386.23c19.66-3.39,20.38,26.87.87,24.7-13.63-1.51-14.15-22.42-.87-24.7Z"/>
  <path class="cls-2" d="M452.74,386.23c19.66-3.39,20.38,26.87.87,24.7-13.63-1.51-14.15-22.42-.87-24.7Z"/>
  <path class="cls-2" d="M242.74,141.23c19.66-3.39,20.38,26.87.87,24.7-13.63-1.51-14.15-22.42-.87-24.7Z"/>
  <path class="cls-2" d="M277.74,141.23c19.66-3.39,20.38,26.87.87,24.7-13.63-1.51-14.15-22.42-.87-24.7Z"/>
  <path class="cls-2" d="M312.74,141.23c19.66-3.39,20.38,26.87.87,24.7-13.63-1.51-14.15-22.42-.87-24.7Z"/>
  <path class="cls-2" d="M347.74,141.23c19.66-3.39,20.38,26.87.87,24.7-13.63-1.51-14.15-22.42-.87-24.7Z"/>
  <path class="cls-2" d="M382.74,386.23c19.66-3.39,20.38,26.87.87,24.7-13.63-1.51-14.15-22.42-.87-24.7Z"/>
  <path class="cls-2" d="M452.74,141.23c19.66-3.39,20.38,26.87.87,24.7-13.63-1.51-14.15-22.42-.87-24.7Z"/>
  <path class="cls-2" d="M487.74,141.23c19.66-3.39,20.38,26.87.87,24.7-13.63-1.51-14.15-22.42-.87-24.7Z"/>
  <path class="cls-2" d="M522.74,141.23c19.66-3.39,20.38,26.87.87,24.7-13.63-1.51-14.15-22.42-.87-24.7Z"/>
  <path class="cls-2" d="M557.74,141.23c19.66-3.39,20.38,26.87.87,24.7-13.63-1.51-14.15-22.42-.87-24.7Z"/>
  <path class="cls-2" d="M592.74,141.23c19.66-3.39,20.38,26.87.87,24.7-13.63-1.51-14.15-22.42-.87-24.7Z"/>
  <path class="cls-2" d="M662.74,141.23c19.66-3.39,20.38,26.87.87,24.7-13.63-1.51-14.15-22.42-.87-24.7Z"/>
  <path class="cls-2" d="M697.74,141.23c19.66-3.39,20.38,26.87.87,24.7-13.63-1.51-14.15-22.42-.87-24.7Z"/>
  <path class="cls-2" d="M732.74,141.23c19.66-3.39,20.38,26.87.87,24.7-13.63-1.51-14.15-22.42-.87-24.7Z"/>
  <path class="cls-2" d="M767.74,141.23c19.66-3.39,20.38,26.87.87,24.7-13.63-1.51-14.15-22.42-.87-24.7Z"/>
  <path class="cls-2" d="M802.74,141.23c19.66-3.39,20.38,26.87.87,24.7-13.63-1.51-14.15-22.42-.87-24.7Z"/>
  <path class="cls-2" d="M242.74,386.23c19.66-3.39,20.38,26.87.87,24.7-13.63-1.51-14.15-22.42-.87-24.7Z"/>
  <path class="cls-2" d="M32.74,386.23c19.66-3.39,20.38,26.87.87,24.7-13.63-1.51-14.15-22.42-.87-24.7Z"/>
  <path class="cls-2" d="M942.74,141.23c19.66-3.39,20.38,26.87.87,24.7-13.63-1.51-14.15-22.42-.87-24.7Z"/>
  <path class="cls-2" d="M942.74,351.23c19.66-3.39,20.38,26.87.87,24.7-13.63-1.51-14.15-22.42-.87-24.7Z"/>
  <path class="cls-2" d="M802.74,351.23c19.66-3.39,20.38,26.87.87,24.7-13.63-1.51-14.15-22.42-.87-24.7Z"/>
  <path class="cls-2" d="M32.74,176.23c19.66-3.39,20.38,26.87.87,24.7-13.63-1.51-14.15-22.42-.87-24.7Z"/>
  <path class="cls-2" d="M662.74,351.23c19.66-3.39,20.38,26.87.87,24.7-13.63-1.51-14.15-22.42-.87-24.7Z"/>
  <path class="cls-2" d="M102.74,176.23c19.66-3.39,20.38,26.87.87,24.7-13.63-1.51-14.15-22.42-.87-24.7Z"/>
  <path class="cls-2" d="M592.74,351.23c19.66-3.39,20.38,26.87.87,24.7-13.63-1.51-14.15-22.42-.87-24.7Z"/>
  <path class="cls-2" d="M452.74,351.23c19.66-3.39,20.38,26.87.87,24.7-13.63-1.51-14.15-22.42-.87-24.7Z"/>
  <path class="cls-2" d="M242.74,176.23c19.66-3.39,20.38,26.87.87,24.7-13.63-1.51-14.15-22.42-.87-24.7Z"/>
  <path class="cls-2" d="M382.74,351.23c19.66-3.39,20.38,26.87.87,24.7-13.63-1.51-14.15-22.42-.87-24.7Z"/>
  <path class="cls-2" d="M312.74,176.23c19.66-3.39,20.38,26.87.87,24.7-13.63-1.51-14.15-22.42-.87-24.7Z"/>
  <path class="cls-2" d="M242.74,351.23c19.66-3.39,20.38,26.87.87,24.7-13.63-1.51-14.15-22.42-.87-24.7Z"/>
  <path class="cls-2" d="M32.74,351.23c19.66-3.39,20.38,26.87.87,24.7-13.63-1.51-14.15-22.42-.87-24.7Z"/>
  <path class="cls-2" d="M452.74,176.23c19.66-3.39,20.38,26.87.87,24.7-13.63-1.51-14.15-22.42-.87-24.7Z"/>
  <path class="cls-2" d="M942.74,316.23c19.66-3.39,20.38,26.87.87,24.7-13.63-1.51-14.15-22.42-.87-24.7Z"/>
  <path class="cls-2" d="M802.74,316.23c19.66-3.39,20.38,26.87.87,24.7-13.63-1.51-14.15-22.42-.87-24.7Z"/>
  <path class="cls-2" d="M662.74,316.23c19.66-3.39,20.38,26.87.87,24.7-13.63-1.51-14.15-22.42-.87-24.7Z"/>
  <path class="cls-2" d="M592.74,176.23c19.66-3.39,20.38,26.87.87,24.7-13.63-1.51-14.15-22.42-.87-24.7Z"/>
  <path class="cls-2" d="M662.74,176.23c19.66-3.39,20.38,26.87.87,24.7-13.63-1.51-14.15-22.42-.87-24.7Z"/>
  <path class="cls-2" d="M557.74,316.23c19.66-3.39,20.38,26.87.87,24.7-13.63-1.51-14.15-22.42-.87-24.7Z"/>
  <path class="cls-2" d="M522.74,316.23c19.66-3.39,20.38,26.87.87,24.7-13.63-1.51-14.15-22.42-.87-24.7Z"/>
  <path class="cls-2" d="M487.74,316.23c19.66-3.39,20.38,26.87.87,24.7-13.63-1.51-14.15-22.42-.87-24.7Z"/>
  <path class="cls-2" d="M347.74,316.23c19.66-3.39,20.38,26.87.87,24.7-13.63-1.51-14.15-22.42-.87-24.7Z"/>
  <path class="cls-2" d="M312.74,316.23c19.66-3.39,20.38,26.87.87,24.7-13.63-1.51-14.15-22.42-.87-24.7Z"/>
  <path class="cls-2" d="M277.74,316.23c19.66-3.39,20.38,26.87.87,24.7-13.63-1.51-14.15-22.42-.87-24.7Z"/>
  <path class="cls-2" d="M942.74,176.23c19.66-3.39,20.38,26.87.87,24.7-13.63-1.51-14.15-22.42-.87-24.7Z"/>
  <path class="cls-2" d="M242.74,316.23c19.66-3.39,20.38,26.87.87,24.7-13.63-1.51-14.15-22.42-.87-24.7Z"/>
  <path class="cls-2" d="M172.74,316.23c19.66-3.39,20.38,26.87.87,24.7-13.63-1.51-14.15-22.42-.87-24.7Z"/>
  <path class="cls-2" d="M32.74,211.23c19.66-3.39,20.38,26.87.87,24.7-13.63-1.51-14.15-22.42-.87-24.7Z"/>
  <path class="cls-2" d="M137.74,316.23c19.66-3.39,20.38,26.87.87,24.7-13.63-1.51-14.15-22.42-.87-24.7Z"/>
  <path class="cls-2" d="M102.74,316.23c19.66-3.39,20.38,26.87.87,24.7-13.63-1.51-14.15-22.42-.87-24.7Z"/>
  <path class="cls-2" d="M137.74,211.23c19.66-3.39,20.38,26.87.87,24.7-13.63-1.51-14.15-22.42-.87-24.7Z"/>
  <path class="cls-2" d="M67.74,316.23c19.66-3.39,20.38,26.87.87,24.7-13.63-1.51-14.15-22.42-.87-24.7Z"/>
  <path class="cls-2" d="M242.74,211.23c19.66-3.39,20.38,26.87.87,24.7-13.63-1.51-14.15-22.42-.87-24.7Z"/>
  <path class="cls-2" d="M942.74,246.23c19.66-3.39,20.38,26.87.87,24.7-13.63-1.51-14.15-22.42-.87-24.7Z"/>
  <path class="cls-2" d="M662.74,246.23c19.66-3.39,20.38,26.87.87,24.7-13.63-1.51-14.15-22.42-.87-24.7Z"/>
  <path class="cls-2" d="M347.74,211.23c19.66-3.39,20.38,26.87.87,24.7-13.63-1.51-14.15-22.42-.87-24.7Z"/>
  <path class="cls-2" d="M592.74,246.23c19.66-3.39,20.38,26.87.87,24.7-13.63-1.51-14.15-22.42-.87-24.7Z"/>
  <path class="cls-2" d="M452.74,211.23c19.66-3.39,20.38,26.87.87,24.7-13.63-1.51-14.15-22.42-.87-24.7Z"/>
  <path class="cls-2" d="M452.74,246.23c19.66-3.39,20.38,26.87.87,24.7-13.63-1.51-14.15-22.42-.87-24.7Z"/>
  <path class="cls-2" d="M382.74,246.23c19.66-3.39,20.38,26.87.87,24.7-13.63-1.51-14.15-22.42-.87-24.7Z"/>
  <path class="cls-2" d="M242.74,246.23c19.66-3.39,20.38,26.87.87,24.7-13.63-1.51-14.15-22.42-.87-24.7Z"/>
  <path class="cls-2" d="M592.74,211.23c19.66-3.39,20.38,26.87.87,24.7-13.63-1.51-14.15-22.42-.87-24.7Z"/>
  <path class="cls-2" d="M662.74,211.23c19.66-3.39,20.38,26.87.87,24.7-13.63-1.51-14.15-22.42-.87-24.7Z"/>
  <path class="cls-2" d="M172.74,246.23c19.66-3.39,20.38,26.87.87,24.7-13.63-1.51-14.15-22.42-.87-24.7Z"/>
  <path class="cls-2" d="M32.74,246.23c19.66-3.39,20.38,26.87.87,24.7-13.63-1.51-14.15-22.42-.87-24.7Z"/>
  <path class="cls-2" d="M942.74,211.23c19.66-3.39,20.38,26.87.87,24.7-13.63-1.51-14.15-22.42-.87-24.7Z"/>
  <path class="cls-1" d="M802.73,211.23c13.31-2.74,21.34,15.04,9.6,22.61-17.02,10.97-28.02-18.82-9.6-22.61Z"/>
  <path class="cls-1" d="M872.73,211.23c13.31-2.74,21.34,15.04,9.6,22.61-17.02,10.97-28.02-18.82-9.6-22.61Z"/>
  <path class="cls-1" d="M907.73,211.23c13.31-2.74,21.34,15.04,9.6,22.61-17.02,10.97-28.02-18.82-9.6-22.61Z"/>
  <path class="cls-1" d="M767.73,211.23c13.31-2.74,21.34,15.04,9.6,22.61-17.02,10.97-28.02-18.82-9.6-22.61Z"/>
  <path class="cls-1" d="M977.73,211.23c13.31-2.74,21.34,15.04,9.6,22.61-17.02,10.97-28.02-18.82-9.6-22.61Z"/>
  <path class="cls-1" d="M1012.73,211.23c13.31-2.74,21.34,15.04,9.6,22.61-17.02,10.97-28.02-18.82-9.6-22.61Z"/>
  <path class="cls-1" d="M732.73,211.23c13.31-2.74,21.34,15.04,9.6,22.61-17.02,10.97-28.02-18.82-9.6-22.61Z"/>
  <path class="cls-1" d="M67.73,246.23c13.31-2.74,21.34,15.04,9.6,22.61-17.02,10.97-28.02-18.82-9.6-22.61Z"/>
  <path class="cls-1" d="M102.73,246.23c13.31-2.74,21.34,15.04,9.6,22.61-17.02,10.97-28.02-18.82-9.6-22.61Z"/>
  <path class="cls-1" d="M137.73,246.23c13.31-2.74,21.34,15.04,9.6,22.61-17.02,10.97-28.02-18.82-9.6-22.61Z"/>
  <path class="cls-1" d="M697.73,211.23c13.31-2.74,21.34,15.04,9.6,22.61-17.02,10.97-28.02-18.82-9.6-22.61Z"/>
  <path class="cls-1" d="M557.73,211.23c13.31-2.74,21.34,15.04,9.6,22.61-17.02,10.97-28.02-18.82-9.6-22.61Z"/>
  <path class="cls-1" d="M277.73,246.23c13.31-2.74,21.34,15.04,9.6,22.61-17.02,10.97-28.02-18.82-9.6-22.61Z"/>
  <path class="cls-1" d="M312.73,246.23c13.31-2.74,21.34,15.04,9.6,22.61-17.02,10.97-28.02-18.82-9.6-22.61Z"/>
  <path class="cls-1" d="M347.73,246.23c13.31-2.74,21.34,15.04,9.6,22.61-17.02,10.97-28.02-18.82-9.6-22.61Z"/>
  <path class="cls-1" d="M522.73,211.23c13.31-2.74,21.34,15.04,9.6,22.61-17.02,10.97-28.02-18.82-9.6-22.61Z"/>
  <path class="cls-1" d="M487.73,211.23c13.31-2.74,21.34,15.04,9.6,22.61-17.02,10.97-28.02-18.82-9.6-22.61Z"/>
  <path class="cls-1" d="M487.73,246.23c13.31-2.74,21.34,15.04,9.6,22.61-17.02,10.97-28.02-18.82-9.6-22.61Z"/>
  <path class="cls-1" d="M522.73,246.23c13.31-2.74,21.34,15.04,9.6,22.61-17.02,10.97-28.02-18.82-9.6-22.61Z"/>
  <path class="cls-1" d="M557.73,246.23c13.31-2.74,21.34,15.04,9.6,22.61-17.02,10.97-28.02-18.82-9.6-22.61Z"/>
  <path class="cls-1" d="M382.73,211.23c13.31-2.74,21.34,15.04,9.6,22.61-17.02,10.97-28.02-18.82-9.6-22.61Z"/>
  <path class="cls-1" d="M312.73,211.23c13.31-2.74,21.34,15.04,9.6,22.61-17.02,10.97-28.02-18.82-9.6-22.61Z"/>
  <path class="cls-1" d="M697.73,246.23c13.31-2.74,21.34,15.04,9.6,22.61-17.02,10.97-28.02-18.82-9.6-22.61Z"/>
  <path class="cls-1" d="M732.73,246.23c13.31-2.74,21.34,15.04,9.6,22.61-17.02,10.97-28.02-18.82-9.6-22.61Z"/>
  <path class="cls-1" d="M767.73,246.23c13.31-2.74,21.34,15.04,9.6,22.61-17.02,10.97-28.02-18.82-9.6-22.61Z"/>
  <path class="cls-1" d="M802.73,246.23c13.31-2.74,21.34,15.04,9.6,22.61-17.02,10.97-28.02-18.82-9.6-22.61Z"/>
  <path class="cls-1" d="M872.73,246.23c13.31-2.74,21.34,15.04,9.6,22.61-17.02,10.97-28.02-18.82-9.6-22.61Z"/>
  <path class="cls-1" d="M907.73,246.23c13.31-2.74,21.34,15.04,9.6,22.61-17.02,10.97-28.02-18.82-9.6-22.61Z"/>
  <path class="cls-1" d="M277.73,211.23c13.31-2.74,21.34,15.04,9.6,22.61-17.02,10.97-28.02-18.82-9.6-22.61Z"/>
  <path class="cls-1" d="M977.73,246.23c13.31-2.74,21.34,15.04,9.6,22.61-17.02,10.97-28.02-18.82-9.6-22.61Z"/>
  <path class="cls-1" d="M1012.73,246.23c13.31-2.74,21.34,15.04,9.6,22.61-17.02,10.97-28.02-18.82-9.6-22.61Z"/>
  <path class="cls-1" d="M32.73,316.23c13.31-2.74,21.34,15.04,9.6,22.61-17.02,10.97-28.02-18.82-9.6-22.61Z"/>
  <path class="cls-1" d="M172.73,211.23c13.31-2.74,21.34,15.04,9.6,22.61-17.02,10.97-28.02-18.82-9.6-22.61Z"/>
  <path class="cls-1" d="M102.73,211.23c13.31-2.74,21.34,15.04,9.6,22.61-17.02,10.97-28.02-18.82-9.6-22.61Z"/>
  <path class="cls-1" d="M67.73,211.23c13.31-2.74,21.34,15.04,9.6,22.61-17.02,10.97-28.02-18.82-9.6-22.61Z"/>
  <path class="cls-1" d="M1012.73,176.23c13.31-2.74,21.34,15.04,9.6,22.61-17.02,10.97-28.02-18.82-9.6-22.61Z"/>
  <path class="cls-1" d="M977.73,176.23c13.31-2.74,21.34,15.04,9.6,22.61-17.02,10.97-28.02-18.82-9.6-22.61Z"/>
  <path class="cls-1" d="M907.73,176.23c13.31-2.74,21.34,15.04,9.6,22.61-17.02,10.97-28.02-18.82-9.6-22.61Z"/>
  <path class="cls-1" d="M872.73,176.23c13.31-2.74,21.34,15.04,9.6,22.61-17.02,10.97-28.02-18.82-9.6-22.61Z"/>
  <path class="cls-1" d="M802.73,176.23c13.31-2.74,21.34,15.04,9.6,22.61-17.02,10.97-28.02-18.82-9.6-22.61Z"/>
  <path class="cls-1" d="M382.73,316.23c13.31-2.74,21.34,15.04,9.6,22.61-17.02,10.97-28.02-18.82-9.6-22.61Z"/>
  <path class="cls-1" d="M452.73,316.23c13.31-2.74,21.34,15.04,9.6,22.61-17.02,10.97-28.02-18.82-9.6-22.61Z"/>
  <path class="cls-1" d="M767.73,176.23c13.31-2.74,21.34,15.04,9.6,22.61-17.02,10.97-28.02-18.82-9.6-22.61Z"/>
  <path class="cls-1" d="M732.73,176.23c13.31-2.74,21.34,15.04,9.6,22.61-17.02,10.97-28.02-18.82-9.6-22.61Z"/>
  <path class="cls-1" d="M697.73,176.23c13.31-2.74,21.34,15.04,9.6,22.61-17.02,10.97-28.02-18.82-9.6-22.61Z"/>
  <path class="cls-1" d="M592.73,316.23c13.31-2.74,21.34,15.04,9.6,22.61-17.02,10.97-28.02-18.82-9.6-22.61Z"/>
  <path class="cls-1" d="M557.73,176.23c13.31-2.74,21.34,15.04,9.6,22.61-17.02,10.97-28.02-18.82-9.6-22.61Z"/>
  <path class="cls-1" d="M697.73,316.23c13.31-2.74,21.34,15.04,9.6,22.61-17.02,10.97-28.02-18.82-9.6-22.61Z"/>
  <path class="cls-1" d="M732.73,316.23c13.31-2.74,21.34,15.04,9.6,22.61-17.02,10.97-28.02-18.82-9.6-22.61Z"/>
  <path class="cls-1" d="M767.73,316.23c13.31-2.74,21.34,15.04,9.6,22.61-17.02,10.97-28.02-18.82-9.6-22.61Z"/>
  <path class="cls-1" d="M522.73,176.23c13.31-2.74,21.34,15.04,9.6,22.61-17.02,10.97-28.02-18.82-9.6-22.61Z"/>
  <path class="cls-1" d="M837.73,316.23c13.31-2.74,21.34,15.04,9.6,22.61-17.02,10.97-28.02-18.82-9.6-22.61Z"/>
  <path class="cls-1" d="M872.73,316.23c13.31-2.74,21.34,15.04,9.6,22.61-17.02,10.97-28.02-18.82-9.6-22.61Z"/>
  <path class="cls-1" d="M907.73,316.23c13.31-2.74,21.34,15.04,9.6,22.61-17.02,10.97-28.02-18.82-9.6-22.61Z"/>
  <path class="cls-1" d="M487.73,176.23c13.31-2.74,21.34,15.04,9.6,22.61-17.02,10.97-28.02-18.82-9.6-22.61Z"/>
  <path class="cls-1" d="M382.73,176.23c13.31-2.74,21.34,15.04,9.6,22.61-17.02,10.97-28.02-18.82-9.6-22.61Z"/>
  <path class="cls-1" d="M67.73,351.23c13.31-2.74,21.34,15.04,9.6,22.61-17.02,10.97-28.02-18.82-9.6-22.61Z"/>
  <path class="cls-1" d="M102.73,351.23c13.31-2.74,21.34,15.04,9.6,22.61-17.02,10.97-28.02-18.82-9.6-22.61Z"/>
  <path class="cls-1" d="M137.73,351.23c13.31-2.74,21.34,15.04,9.6,22.61-17.02,10.97-28.02-18.82-9.6-22.61Z"/>
  <path class="cls-1" d="M172.73,351.23c13.31-2.74,21.34,15.04,9.6,22.61-17.02,10.97-28.02-18.82-9.6-22.61Z"/>
  <path class="cls-1" d="M347.73,176.23c13.31-2.74,21.34,15.04,9.6,22.61-17.02,10.97-28.02-18.82-9.6-22.61Z"/>
  <path class="cls-1" d="M277.73,351.23c13.31-2.74,21.34,15.04,9.6,22.61-17.02,10.97-28.02-18.82-9.6-22.61Z"/>
  <path class="cls-1" d="M312.73,351.23c13.31-2.74,21.34,15.04,9.6,22.61-17.02,10.97-28.02-18.82-9.6-22.61Z"/>
  <path class="cls-1" d="M347.73,351.23c13.31-2.74,21.34,15.04,9.6,22.61-17.02,10.97-28.02-18.82-9.6-22.61Z"/>
  <path class="cls-1" d="M277.73,176.23c13.31-2.74,21.34,15.04,9.6,22.61-17.02,10.97-28.02-18.82-9.6-22.61Z"/>
  <path class="cls-1" d="M172.73,176.23c13.31-2.74,21.34,15.04,9.6,22.61-17.02,10.97-28.02-18.82-9.6-22.61Z"/>
  <path class="cls-1" d="M487.73,351.23c13.31-2.74,21.34,15.04,9.6,22.61-17.02,10.97-28.02-18.82-9.6-22.61Z"/>
  <path class="cls-1" d="M522.73,351.23c13.31-2.74,21.34,15.04,9.6,22.61-17.02,10.97-28.02-18.82-9.6-22.61Z"/>
  <path class="cls-1" d="M557.73,351.23c13.31-2.74,21.34,15.04,9.6,22.61-17.02,10.97-28.02-18.82-9.6-22.61Z"/>
  <path class="cls-1" d="M137.73,176.23c13.31-2.74,21.34,15.04,9.6,22.61-17.02,10.97-28.02-18.82-9.6-22.61Z"/>
  <path class="cls-1" d="M67.73,176.23c13.31-2.74,21.34,15.04,9.6,22.61-17.02,10.97-28.02-18.82-9.6-22.61Z"/>
  <path class="cls-1" d="M697.73,351.23c13.31-2.74,21.34,15.04,9.6,22.61-17.02,10.97-28.02-18.82-9.6-22.61Z"/>
  <path class="cls-1" d="M732.73,351.23c13.31-2.74,21.34,15.04,9.6,22.61-17.02,10.97-28.02-18.82-9.6-22.61Z"/>
  <path class="cls-1" d="M767.73,351.23c13.31-2.74,21.34,15.04,9.6,22.61-17.02,10.97-28.02-18.82-9.6-22.61Z"/>
  <path class="cls-1" d="M1012.73,141.23c13.31-2.74,21.34,15.04,9.6,22.61-17.02,10.97-28.02-18.82-9.6-22.61Z"/>
  <path class="cls-1" d="M837.73,351.23c13.31-2.74,21.34,15.04,9.6,22.61-17.02,10.97-28.02-18.82-9.6-22.61Z"/>
  <path class="cls-1" d="M872.73,351.23c13.31-2.74,21.34,15.04,9.6,22.61-17.02,10.97-28.02-18.82-9.6-22.61Z"/>
  <path class="cls-1" d="M907.73,351.23c13.31-2.74,21.34,15.04,9.6,22.61-17.02,10.97-28.02-18.82-9.6-22.61Z"/>
  <path class="cls-1" d="M977.73,141.23c13.31-2.74,21.34,15.04,9.6,22.61-17.02,10.97-28.02-18.82-9.6-22.61Z"/>
  <path class="cls-1" d="M907.73,141.23c13.31-2.74,21.34,15.04,9.6,22.61-17.02,10.97-28.02-18.82-9.6-22.61Z"/>
  <path class="cls-1" d="M67.73,386.23c13.31-2.74,21.34,15.04,9.6,22.61-17.02,10.97-28.02-18.82-9.6-22.61Z"/>
  <path class="cls-1" d="M102.73,386.23c13.31-2.74,21.34,15.04,9.6,22.61-17.02,10.97-28.02-18.82-9.6-22.61Z"/>
  <path class="cls-1" d="M137.73,386.23c13.31-2.74,21.34,15.04,9.6,22.61-17.02,10.97-28.02-18.82-9.6-22.61Z"/>
  <path class="cls-1" d="M172.73,386.23c13.31-2.74,21.34,15.04,9.6,22.61-17.02,10.97-28.02-18.82-9.6-22.61Z"/>
  <path class="cls-1" d="M872.73,141.23c13.31-2.74,21.34,15.04,9.6,22.61-17.02,10.97-28.02-18.82-9.6-22.61Z"/>
  <path class="cls-1" d="M277.73,386.23c13.31-2.74,21.34,15.04,9.6,22.61-17.02,10.97-28.02-18.82-9.6-22.61Z"/>
  <path class="cls-1" d="M312.73,386.23c13.31-2.74,21.34,15.04,9.6,22.61-17.02,10.97-28.02-18.82-9.6-22.61Z"/>
  <path class="cls-1" d="M347.73,386.23c13.31-2.74,21.34,15.04,9.6,22.61-17.02,10.97-28.02-18.82-9.6-22.61Z"/>
  <path class="cls-1" d="M382.73,141.23c13.31-2.74,21.34,15.04,9.6,22.61-17.02,10.97-28.02-18.82-9.6-22.61Z"/>
  <path class="cls-1" d="M172.73,141.23c13.31-2.74,21.34,15.04,9.6,22.61-17.02,10.97-28.02-18.82-9.6-22.61Z"/>
  <path class="cls-1" d="M487.73,386.23c13.31-2.74,21.34,15.04,9.6,22.61-17.02,10.97-28.02-18.82-9.6-22.61Z"/>
  <path class="cls-1" d="M522.73,386.23c13.31-2.74,21.34,15.04,9.6,22.61-17.02,10.97-28.02-18.82-9.6-22.61Z"/>
  <path class="cls-1" d="M557.73,386.23c13.31-2.74,21.34,15.04,9.6,22.61-17.02,10.97-28.02-18.82-9.6-22.61Z"/>
  <path class="cls-1" d="M137.73,141.23c13.31-2.74,21.34,15.04,9.6,22.61-17.02,10.97-28.02-18.82-9.6-22.61Z"/>
  <path class="cls-1" d="M102.73,141.23c13.31-2.74,21.34,15.04,9.6,22.61-17.02,10.97-28.02-18.82-9.6-22.61Z"/>
  <path class="cls-1" d="M697.73,386.23c13.31-2.74,21.34,15.04,9.6,22.61-17.02,10.97-28.02-18.82-9.6-22.61Z"/>
  <path class="cls-1" d="M732.73,386.23c13.31-2.74,21.34,15.04,9.6,22.61-17.02,10.97-28.02-18.82-9.6-22.61Z"/>
  <path class="cls-1" d="M767.73,386.23c13.31-2.74,21.34,15.04,9.6,22.61-17.02,10.97-28.02-18.82-9.6-22.61Z"/>
  <path class="cls-1" d="M1012.73,106.23c13.31-2.74,21.34,15.04,9.6,22.61-17.02,10.97-28.02-18.82-9.6-22.61Z"/>
  <path class="cls-1" d="M837.73,386.23c13.31-2.74,21.34,15.04,9.6,22.61-17.02,10.97-28.02-18.82-9.6-22.61Z"/>
  <path class="cls-1" d="M872.73,386.23c13.31-2.74,21.34,15.04,9.6,22.61-17.02,10.97-28.02-18.82-9.6-22.61Z"/>
  <path class="cls-1" d="M907.73,386.23c13.31-2.74,21.34,15.04,9.6,22.61-17.02,10.97-28.02-18.82-9.6-22.61Z"/>
  <path class="cls-1" d="M977.73,106.23c13.31-2.74,21.34,15.04,9.6,22.61-17.02,10.97-28.02-18.82-9.6-22.61Z"/>
  <path class="cls-1" d="M907.73,106.23c13.31-2.74,21.34,15.04,9.6,22.61-17.02,10.97-28.02-18.82-9.6-22.61Z"/>
  <path class="cls-1" d="M67.73,421.23c13.31-2.74,21.34,15.04,9.6,22.61-17.02,10.97-28.02-18.82-9.6-22.61Z"/>
  <path class="cls-1" d="M102.73,421.23c13.31-2.74,21.34,15.04,9.6,22.61-17.02,10.97-28.02-18.82-9.6-22.61Z"/>
  <path class="cls-1" d="M137.73,421.23c13.31-2.74,21.34,15.04,9.6,22.61-17.02,10.97-28.02-18.82-9.6-22.61Z"/>
  <path class="cls-1" d="M172.73,421.23c13.31-2.74,21.34,15.04,9.6,22.61-17.02,10.97-28.02-18.82-9.6-22.61Z"/>
  <path class="cls-1" d="M872.73,106.23c13.31-2.74,21.34,15.04,9.6,22.61-17.02,10.97-28.02-18.82-9.6-22.61Z"/>
  <path class="cls-1" d="M802.73,106.23c13.31-2.74,21.34,15.04,9.6,22.61-17.02,10.97-28.02-18.82-9.6-22.61Z"/>
  <path class="cls-1" d="M767.73,106.23c13.31-2.74,21.34,15.04,9.6,22.61-17.02,10.97-28.02-18.82-9.6-22.61Z"/>
  <path class="cls-1" d="M732.73,106.23c13.31-2.74,21.34,15.04,9.6,22.61-17.02,10.97-28.02-18.82-9.6-22.61Z"/>
  <path class="cls-1" d="M382.73,421.23c13.31-2.74,21.34,15.04,9.6,22.61-17.02,10.97-28.02-18.82-9.6-22.61Z"/>
  <path class="cls-1" d="M697.73,106.23c13.31-2.74,21.34,15.04,9.6,22.61-17.02,10.97-28.02-18.82-9.6-22.61Z"/>
  <path class="cls-1" d="M487.73,421.23c13.31-2.74,21.34,15.04,9.6,22.61-17.02,10.97-28.02-18.82-9.6-22.61Z"/>
  <path class="cls-1" d="M522.73,421.23c13.31-2.74,21.34,15.04,9.6,22.61-17.02,10.97-28.02-18.82-9.6-22.61Z"/>
  <path class="cls-1" d="M557.73,421.23c13.31-2.74,21.34,15.04,9.6,22.61-17.02,10.97-28.02-18.82-9.6-22.61Z"/>
  <path class="cls-1" d="M557.73,106.23c13.31-2.74,21.34,15.04,9.6,22.61-17.02,10.97-28.02-18.82-9.6-22.61Z"/>
  <path class="cls-1" d="M522.73,106.23c13.31-2.74,21.34,15.04,9.6,22.61-17.02,10.97-28.02-18.82-9.6-22.61Z"/>
  <path class="cls-1" d="M697.73,421.23c13.31-2.74,21.34,15.04,9.6,22.61-17.02,10.97-28.02-18.82-9.6-22.61Z"/>
  <path class="cls-1" d="M732.73,421.23c13.31-2.74,21.34,15.04,9.6,22.61-17.02,10.97-28.02-18.82-9.6-22.61Z"/>
  <path class="cls-1" d="M767.73,421.23c13.31-2.74,21.34,15.04,9.6,22.61-17.02,10.97-28.02-18.82-9.6-22.61Z"/>
  <path class="cls-1" d="M487.73,106.23c13.31-2.74,21.34,15.04,9.6,22.61-17.02,10.97-28.02-18.82-9.6-22.61Z"/>
  <path class="cls-1" d="M837.73,421.23c13.31-2.74,21.34,15.04,9.6,22.61-17.02,10.97-28.02-18.82-9.6-22.61Z"/>
  <path class="cls-1" d="M872.73,421.23c13.31-2.74,21.34,15.04,9.6,22.61-17.02,10.97-28.02-18.82-9.6-22.61Z"/>
  <path class="cls-1" d="M907.73,421.23c13.31-2.74,21.34,15.04,9.6,22.61-17.02,10.97-28.02-18.82-9.6-22.61Z"/>
  <path class="cls-1" d="M347.73,106.23c13.31-2.74,21.34,15.04,9.6,22.61-17.02,10.97-28.02-18.82-9.6-22.61Z"/>
  <path class="cls-1" d="M312.73,106.23c13.31-2.74,21.34,15.04,9.6,22.61-17.02,10.97-28.02-18.82-9.6-22.61Z"/>
  <path class="cls-1" d="M67.73,456.23c13.31-2.74,21.34,15.04,9.6,22.61-17.02,10.97-28.02-18.82-9.6-22.61Z"/>
  <path class="cls-1" d="M102.73,456.23c13.31-2.74,21.34,15.04,9.6,22.61-17.02,10.97-28.02-18.82-9.6-22.61Z"/>
  <path class="cls-1" d="M137.73,456.23c13.31-2.74,21.34,15.04,9.6,22.61-17.02,10.97-28.02-18.82-9.6-22.61Z"/>
  <path class="cls-1" d="M172.73,456.23c13.31-2.74,21.34,15.04,9.6,22.61-17.02,10.97-28.02-18.82-9.6-22.61Z"/>
  <path class="cls-1" d="M277.73,106.23c13.31-2.74,21.34,15.04,9.6,22.61-17.02,10.97-28.02-18.82-9.6-22.61Z"/>
  <path class="cls-1" d="M277.73,456.23c13.31-2.74,21.34,15.04,9.6,22.61-17.02,10.97-28.02-18.82-9.6-22.61Z"/>
  <path class="cls-1" d="M172.73,106.23c13.31-2.74,21.34,15.04,9.6,22.61-17.02,10.97-28.02-18.82-9.6-22.61Z"/>
  <path class="cls-1" d="M347.73,456.23c13.31-2.74,21.34,15.04,9.6,22.61-17.02,10.97-28.02-18.82-9.6-22.61Z"/>
  <path class="cls-1" d="M382.73,456.23c13.31-2.74,21.34,15.04,9.6,22.61-17.02,10.97-28.02-18.82-9.6-22.61Z"/>
  <path class="cls-1" d="M137.73,106.23c13.31-2.74,21.34,15.04,9.6,22.61-17.02,10.97-28.02-18.82-9.6-22.61Z"/>
  <path class="cls-1" d="M487.73,456.23c13.31-2.74,21.34,15.04,9.6,22.61-17.02,10.97-28.02-18.82-9.6-22.61Z"/>
  <path class="cls-1" d="M522.73,456.23c13.31-2.74,21.34,15.04,9.6,22.61-17.02,10.97-28.02-18.82-9.6-22.61Z"/>
  <path class="cls-1" d="M557.73,456.23c13.31-2.74,21.34,15.04,9.6,22.61-17.02,10.97-28.02-18.82-9.6-22.61Z"/>
  <path class="cls-1" d="M67.73,106.23c13.31-2.74,21.34,15.04,9.6,22.61-17.02,10.97-28.02-18.82-9.6-22.61Z"/>
  <path class="cls-1" d="M1012.73,71.23c13.31-2.74,21.34,15.04,9.6,22.61-17.02,10.97-28.02-18.82-9.6-22.61Z"/>
  <path class="cls-1" d="M697.73,456.23c13.31-2.74,21.34,15.04,9.6,22.61-17.02,10.97-28.02-18.82-9.6-22.61Z"/>
  <path class="cls-1" d="M732.73,456.23c13.31-2.74,21.34,15.04,9.6,22.61-17.02,10.97-28.02-18.82-9.6-22.61Z"/>
  <path class="cls-1" d="M767.73,456.23c13.31-2.74,21.34,15.04,9.6,22.61-17.02,10.97-28.02-18.82-9.6-22.61Z"/>
  <path class="cls-1" d="M977.73,71.23c13.31-2.74,21.34,15.04,9.6,22.61-17.02,10.97-28.02-18.82-9.6-22.61Z"/>
  <path class="cls-1" d="M837.73,456.23c13.31-2.74,21.34,15.04,9.6,22.61-17.02,10.97-28.02-18.82-9.6-22.61Z"/>
  <path class="cls-1" d="M872.73,456.23c13.31-2.74,21.34,15.04,9.6,22.61-17.02,10.97-28.02-18.82-9.6-22.61Z"/>
  <path class="cls-1" d="M907.73,456.23c13.31-2.74,21.34,15.04,9.6,22.61-17.02,10.97-28.02-18.82-9.6-22.61Z"/>
  <path class="cls-1" d="M907.73,71.23c13.31-2.74,21.34,15.04,9.6,22.61-17.02,10.97-28.02-18.82-9.6-22.61Z"/>
  <path class="cls-1" d="M872.73,71.23c13.31-2.74,21.34,15.04,9.6,22.61-17.02,10.97-28.02-18.82-9.6-22.61Z"/>
  <path class="cls-1" d="M67.73,491.23c13.31-2.74,21.34,15.04,9.6,22.61-17.02,10.97-28.02-18.82-9.6-22.61Z"/>
  <path class="cls-1" d="M102.73,491.23c13.31-2.74,21.34,15.04,9.6,22.61-17.02,10.97-28.02-18.82-9.6-22.61Z"/>
  <path class="cls-1" d="M137.73,491.23c13.31-2.74,21.34,15.04,9.6,22.61-17.02,10.97-28.02-18.82-9.6-22.61Z"/>
  <path class="cls-1" d="M172.73,491.23c13.31-2.74,21.34,15.04,9.6,22.61-17.02,10.97-28.02-18.82-9.6-22.61Z"/>
  <path class="cls-1" d="M802.73,71.23c13.31-2.74,21.34,15.04,9.6,22.61-17.02,10.97-28.02-18.82-9.6-22.61Z"/>
  <path class="cls-1" d="M277.73,491.23c13.31-2.74,21.34,15.04,9.6,22.61-17.02,10.97-28.02-18.82-9.6-22.61Z"/>
  <path class="cls-1" d="M312.73,491.23c13.31-2.74,21.34,15.04,9.6,22.61-17.02,10.97-28.02-18.82-9.6-22.61Z"/>
  <path class="cls-1" d="M767.73,71.23c13.31-2.74,21.34,15.04,9.6,22.61-17.02,10.97-28.02-18.82-9.6-22.61Z"/>
  <path class="cls-1" d="M382.73,491.23c13.31-2.74,21.34,15.04,9.6,22.61-17.02,10.97-28.02-18.82-9.6-22.61Z"/>
  <path class="cls-1" d="M732.73,71.23c13.31-2.74,21.34,15.04,9.6,22.61-17.02,10.97-28.02-18.82-9.6-22.61Z"/>
  <path class="cls-1" d="M487.73,491.23c13.31-2.74,21.34,15.04,9.6,22.61-17.02,10.97-28.02-18.82-9.6-22.61Z"/>
  <path class="cls-1" d="M522.73,491.23c13.31-2.74,21.34,15.04,9.6,22.61-17.02,10.97-28.02-18.82-9.6-22.61Z"/>
  <path class="cls-1" d="M557.73,491.23c13.31-2.74,21.34,15.04,9.6,22.61-17.02,10.97-28.02-18.82-9.6-22.61Z"/>
  <path class="cls-1" d="M697.73,71.23c13.31-2.74,21.34,15.04,9.6,22.61-17.02,10.97-28.02-18.82-9.6-22.61Z"/>
  <path class="cls-1" d="M662.73,491.23c13.31-2.74,21.34,15.04,9.6,22.61-17.02,10.97-28.02-18.82-9.6-22.61Z"/>
  <path class="cls-1" d="M557.73,71.23c13.31-2.74,21.34,15.04,9.6,22.61-17.02,10.97-28.02-18.82-9.6-22.61Z"/>
  <path class="cls-1" d="M732.73,491.23c13.31-2.74,21.34,15.04,9.6,22.61-17.02,10.97-28.02-18.82-9.6-22.61Z"/>
  <path class="cls-1" d="M522.73,71.23c13.31-2.74,21.34,15.04,9.6,22.61-17.02,10.97-28.02-18.82-9.6-22.61Z"/>
  <path class="cls-1" d="M802.73,491.23c13.31-2.74,21.34,15.04,9.6,22.61-17.02,10.97-28.02-18.82-9.6-22.61Z"/>
  <path class="cls-1" d="M487.73,71.23c13.31-2.74,21.34,15.04,9.6,22.61-17.02,10.97-28.02-18.82-9.6-22.61Z"/>
  <path class="cls-1" d="M872.73,491.23c13.31-2.74,21.34,15.04,9.6,22.61-17.02,10.97-28.02-18.82-9.6-22.61Z"/>
  <path class="cls-1" d="M347.73,71.23c13.31-2.74,21.34,15.04,9.6,22.61-17.02,10.97-28.02-18.82-9.6-22.61Z"/>
  <path class="cls-1" d="M942.73,491.23c13.31-2.74,21.34,15.04,9.6,22.61-17.02,10.97-28.02-18.82-9.6-22.61Z"/>
  <path class="cls-1" d="M32.73,526.23c13.31-2.74,21.34,15.04,9.6,22.61-17.02,10.97-28.02-18.82-9.6-22.61Z"/>
  <path class="cls-1" d="M312.73,71.23c13.31-2.74,21.34,15.04,9.6,22.61-17.02,10.97-28.02-18.82-9.6-22.61Z"/>
  <path class="cls-1" d="M277.73,71.23c13.31-2.74,21.34,15.04,9.6,22.61-17.02,10.97-28.02-18.82-9.6-22.61Z"/>
  <path class="cls-1" d="M172.73,71.23c13.31-2.74,21.34,15.04,9.6,22.61-17.02,10.97-28.02-18.82-9.6-22.61Z"/>
  <path class="cls-1" d="M102.73,71.23c13.31-2.74,21.34,15.04,9.6,22.61-17.02,10.97-28.02-18.82-9.6-22.61Z"/>
  <path class="cls-1" d="M67.73,71.23c13.31-2.74,21.34,15.04,9.6,22.61-17.02,10.97-28.02-18.82-9.6-22.61Z"/>
  <path class="cls-1" d="M277.73,526.23c13.31-2.74,21.34,15.04,9.6,22.61-17.02,10.97-28.02-18.82-9.6-22.61Z"/>
  <path class="cls-1" d="M312.73,526.23c13.31-2.74,21.34,15.04,9.6,22.61-17.02,10.97-28.02-18.82-9.6-22.61Z"/>
  <path class="cls-1" d="M347.73,526.23c13.31-2.74,21.34,15.04,9.6,22.61-17.02,10.97-28.02-18.82-9.6-22.61Z"/>
  <path class="cls-1" d="M592.73,36.23c13.31-2.74,21.34,15.04,9.6,22.61-17.02,10.97-28.02-18.82-9.6-22.61Z"/>
  <path class="cls-1" d="M452.73,526.23c13.31-2.74,21.34,15.04,9.6,22.61-17.02,10.97-28.02-18.82-9.6-22.61Z"/>
  <path class="cls-1" d="M452.73,36.23c13.31-2.74,21.34,15.04,9.6,22.61-17.02,10.97-28.02-18.82-9.6-22.61Z"/>
  <path class="cls-1" d="M382.73,36.23c13.31-2.74,21.34,15.04,9.6,22.61-17.02,10.97-28.02-18.82-9.6-22.61Z"/>
  <path class="cls-1" d="M137.73,36.23c13.31-2.74,21.34,15.04,9.6,22.61-17.02,10.97-28.02-18.82-9.6-22.61Z"/>
  <path class="cls-1" d="M592.73,526.23c13.31-2.74,21.34,15.04,9.6,22.61-17.02,10.97-28.02-18.82-9.6-22.61Z"/>
  <path class="cls-1" d="M662.73,526.23c13.31-2.74,21.34,15.04,9.6,22.61-17.02,10.97-28.02-18.82-9.6-22.61Z"/>
  <path class="cls-1" d="M697.73,526.23c13.31-2.74,21.34,15.04,9.6,22.61-17.02,10.97-28.02-18.82-9.6-22.61Z"/>
  <path class="cls-1" d="M102.73,36.23c13.31-2.74,21.34,15.04,9.6,22.61-17.02,10.97-28.02-18.82-9.6-22.61Z"/>
  <path class="cls-1" d="M767.73,526.23c13.31-2.74,21.34,15.04,9.6,22.61-17.02,10.97-28.02-18.82-9.6-22.61Z"/>
  <path class="cls-1" d="M802.73,526.23c13.31-2.74,21.34,15.04,9.6,22.61-17.02,10.97-28.02-18.82-9.6-22.61Z"/>
  <path class="cls-1" d="M837.73,526.23c13.31-2.74,21.34,15.04,9.6,22.61-17.02,10.97-28.02-18.82-9.6-22.61Z"/>
  <path class="cls-1" d="M67.73,36.23c13.31-2.74,21.34,15.04,9.6,22.61-17.02,10.97-28.02-18.82-9.6-22.61Z"/>
  <path class="cls-1" d="M907.73,526.23c13.31-2.74,21.34,15.04,9.6,22.61-17.02,10.97-28.02-18.82-9.6-22.61Z"/>
  <path class="cls-1" d="M942.73,526.23c13.31-2.74,21.34,15.04,9.6,22.61-17.02,10.97-28.02-18.82-9.6-22.61Z"/>
</svg>